<svg xmlns="http://www.w3.org/2000/svg" viewBox="0 0 100 100" preserveAspectRatio="xMidYMid" width="201" height="201" style="shape-rendering: auto; display: block; background: transparent;" xmlns:xlink="http://www.w3.org/1999/xlink"><g><g transform="rotate(0 50 50)">
  <rect fill="#7faa6c" height="12" width="11" ry="6" rx="5.5" y="30" x="44.5">
    <animate repeatCount="indefinite" begin="-0.46063651591289784s" dur="0.5025125628140703s" keyTimes="0;1" values="1;0" attributeName="opacity"></animate>
  </rect>
</g><g transform="rotate(30 50 50)">
  <rect fill="#7faa6c" height="12" width="11" ry="6" rx="5.5" y="30" x="44.5">
    <animate repeatCount="indefinite" begin="-0.4187604690117253s" dur="0.5025125628140703s" keyTimes="0;1" values="1;0" attributeName="opacity"></animate>
  </rect>
</g><g transform="rotate(60 50 50)">
  <rect fill="#7faa6c" height="12" width="11" ry="6" rx="5.5" y="30" x="44.5">
    <animate repeatCount="indefinite" begin="-0.3768844221105528s" dur="0.5025125628140703s" keyTimes="0;1" values="1;0" attributeName="opacity"></animate>
  </rect>
</g><g transform="rotate(90 50 50)">
  <rect fill="#7faa6c" height="12" width="11" ry="6" rx="5.5" y="30" x="44.5">
    <animate repeatCount="indefinite" begin="-0.33500837520938026s" dur="0.5025125628140703s" keyTimes="0;1" values="1;0" attributeName="opacity"></animate>
  </rect>
</g><g transform="rotate(120 50 50)">
  <rect fill="#7faa6c" height="12" width="11" ry="6" rx="5.5" y="30" x="44.5">
    <animate repeatCount="indefinite" begin="-0.29313232830820773s" dur="0.5025125628140703s" keyTimes="0;1" values="1;0" attributeName="opacity"></animate>
  </rect>
</g><g transform="rotate(150 50 50)">
  <rect fill="#7faa6c" height="12" width="11" ry="6" rx="5.5" y="30" x="44.5">
    <animate repeatCount="indefinite" begin="-0.2512562814070352s" dur="0.5025125628140703s" keyTimes="0;1" values="1;0" attributeName="opacity"></animate>
  </rect>
</g><g transform="rotate(180 50 50)">
  <rect fill="#7faa6c" height="12" width="11" ry="6" rx="5.5" y="30" x="44.5">
    <animate repeatCount="indefinite" begin="-0.20938023450586266s" dur="0.5025125628140703s" keyTimes="0;1" values="1;0" attributeName="opacity"></animate>
  </rect>
</g><g transform="rotate(210 50 50)">
  <rect fill="#7faa6c" height="12" width="11" ry="6" rx="5.5" y="30" x="44.5">
    <animate repeatCount="indefinite" begin="-0.16750418760469013s" dur="0.5025125628140703s" keyTimes="0;1" values="1;0" attributeName="opacity"></animate>
  </rect>
</g><g transform="rotate(240 50 50)">
  <rect fill="#7faa6c" height="12" width="11" ry="6" rx="5.5" y="30" x="44.5">
    <animate repeatCount="indefinite" begin="-0.1256281407035176s" dur="0.5025125628140703s" keyTimes="0;1" values="1;0" attributeName="opacity"></animate>
  </rect>
</g><g transform="rotate(270 50 50)">
  <rect fill="#7faa6c" height="12" width="11" ry="6" rx="5.5" y="30" x="44.5">
    <animate repeatCount="indefinite" begin="-0.08375209380234507s" dur="0.5025125628140703s" keyTimes="0;1" values="1;0" attributeName="opacity"></animate>
  </rect>
</g><g transform="rotate(300 50 50)">
  <rect fill="#7faa6c" height="12" width="11" ry="6" rx="5.5" y="30" x="44.5">
    <animate repeatCount="indefinite" begin="-0.04187604690117253s" dur="0.5025125628140703s" keyTimes="0;1" values="1;0" attributeName="opacity"></animate>
  </rect>
</g><g transform="rotate(330 50 50)">
  <rect fill="#7faa6c" height="12" width="11" ry="6" rx="5.5" y="30" x="44.5">
    <animate repeatCount="indefinite" begin="0s" dur="0.5025125628140703s" keyTimes="0;1" values="1;0" attributeName="opacity"></animate>
  </rect>
</g><g></g></g><!-- [ldio] generated by https://loading.io --></svg>